<?xml version="1.0" encoding="utf-8"?>
<!-- Generator: Adobe Illustrator 24.1.2, SVG Export Plug-In . SVG Version: 6.00 Build 0)  -->
<svg version="1.1" id="Capa_1" xmlns="http://www.w3.org/2000/svg" xmlns:xlink="http://www.w3.org/1999/xlink" x="0px" y="0px"
	 viewBox="0 0 708.8 150.5" style="enable-background:new 0 0 708.8 150.5;" xml:space="preserve">
<style type="text/css">
	.st0{fill:#004EEB;}
</style>
<g>
	<path class="st0" d="M18.3,93.7C8.2,93.7,0,85.5,0,75.4s8.2-18.2,18.2-18.2s18.2,8.2,18.2,18.2S28.4,93.7,18.3,93.7z M112.7,8.4
		C99.2,8.4,98.6,19.8,78,19.8c-20.8,0-22.5-11.4-34.8-11.4c-10.1,0-18.2,8.2-18.2,18.2s8.2,18.2,18.2,18.2
		c13.6,0,14.2-11.4,34.8-11.4c20.8,0,22.5,11.4,34.8,11.4c10.1,0,18.2-8.2,18.2-18.2S122.8,8.4,112.7,8.4z M112.7,105.9
		c-13.6,0-14.2,11.4-34.8,11.4c-20.8,0-22.5-11.4-34.8-11.4c-10.1,0-18.2,8.2-18.2,18.2s8.2,18.2,18.2,18.2
		c13.6,0,14.2-11.4,34.8-11.4c20.8,0,22.5,11.4,34.8,11.4c10.1,0,18.2-8.2,18.2-18.2S122.8,105.9,112.7,105.9z M139.7,57.2
		c-13.7,0-13.2,12-30.4,12v0c-15.9,0-16.1-11.9-31.4-11.9c-9.5,0-17.3,8.7-17.3,18.2c0,9.5,7.9,18.2,18.2,18.2
		c13.7,0,13.2-12,30.4-12v0c15.9,0,16.1,11.9,31.4,11.9c9.5,0,17.3-8.7,17.3-18.2C158,65.9,150.1,57.2,139.7,57.2z"/>
	<path d="M275.4,102L275.4,102c-7.3,12.1-20.4,21.1-35.3,21.1c-26.2,0-42.6-19.7-42.6-43s19.2-42.2,42.7-42.2
		c14.9,0,28,8.2,35.3,20.3l0,0c0.5,1,0.2,2.2-0.8,2.8c-1,0.6-16.7,9.6-16.7,9.6c-1,0.6-2.2,0.2-2.8-0.7l0,0c-3.3-4.8-8.7-7.9-15-7.9
		c-10,0-18.1,8.1-18.1,18.1s8.1,18.1,18.1,18.1c6.2,0,11.7-3.1,15-7.9l0,0c0.6-1,1.9-1.3,2.9-0.8c0,0,15.7,9.1,16.7,9.6
		C275.7,99.7,276,101,275.4,102z M493.4,4.5c-7.1,0-12.9,5.8-12.9,12.9s5.8,12.9,12.9,12.9c7.1,0,12.9-5.8,12.9-12.9
		S500.5,4.5,493.4,4.5z M505.3,40.5c0-1.2-1-2.1-2.1-2.1c0,0-18.5,0-19.6,0s-2.1,1-2.1,2.1V120c0,1.2,1,2.1,2.1,2.1h19.6
		c1.2,0,2.1-1,2.1-2.1V40.5z M695.8,4.5c-7.1,0-12.9,5.8-12.9,12.9s5.8,12.9,12.9,12.9s12.9-5.8,12.9-12.9S702.9,4.5,695.8,4.5z
		 M707.7,40.5c0-1.2-1-2.1-2.1-2.1c0,0-18.5,0-19.6,0s-2.1,1-2.1,2.1V120c0,1.2,1,2.1,2.1,2.1h19.6c1.2,0,2.1-1,2.1-2.1V40.5z
		 M311.9,2.3c0-1.2-1-2.1-2.1-2.1c0,0-18.5,0-19.6,0s-2.1,1-2.1,2.1V120c0,1.2,1,2.1,2.1,2.1h19.6c1.2,0,2.1-1,2.1-2.1V2.3z
		 M578.3,38.4c0,0-15.8,0-17.9,0c-2.6,0-2.6-1.6-2.6-3c0-12.5,0.1-11.1,19.9-11.1c1.1,0,2-0.9,2-2c0,0,0-18.1,0-19.2
		c0-1.1,0-2.8-2.5-2.8c-14.1,0-43-2.7-43.2,35.8c0,0.1,0,2.3-1.7,2.3c-3.9,0-12.6,0-12.6,0c-1.2,0-2.1,1-2.1,2.1v19.7
		c0,1.2,1,2.1,2.1,2.1h12.3c1.7,0,2,0,2,1.9V120c0,1.2,1,2.1,2.1,2.1h19.6c1.2,0,2.1-1,2.1-2.1V64.1c0-1.8,0.6-1.8,2.2-1.8h18.3
		c1.2,0,2.1-1,2.1-2.1c0,0,0-18.5,0-19.7C580.4,39.3,579.5,38.4,578.3,38.4z M406.1,40.5V120c0,1.2-1,2.1-2.1,2.1h-19.5
		c-2.2,0-2.1-2.8-2.1-2.8c0-1.2-1-1.9-2-1.3c0,0-6.8,5-16.5,5c-25.2,0-42.2-18.2-42.2-43.3c0-23.3,18.9-41.9,41.6-41.9
		c9.6,0,17.2,4.5,17.2,4.5c1.1,0.6,2.2-0.1,2.2-1.2c0,0-0.1-2.8,2.1-2.8H404v0C405.2,38.4,406.1,39.3,406.1,40.5z M382.4,80.1
		c0-10.2-8.2-18.4-18.3-18.4c-10.1,0-18.3,8.2-18.3,18.4c0,10.2,8.2,18.4,18.3,18.4C374.2,98.5,382.4,90.3,382.4,80.1z M442.5,122
		h-19.8c-1.2,0-2.1-1-2.1-2.1V40.4c0-1.2,0.9-2.1,2.1-2.1h20c2.2,0,2.1,2.8,2.1,2.8c0,1,0.8,1.6,1.7,1.4c0.5-0.1,1.7-0.8,2.6-1.1
		c3.1-1.3,8.6-2.9,18.7-2.9c2.5,0,2.5,1.7,2.5,2.8c0,1.1,0,19.1,0,19.1c0,1.1-0.9,2-2,2c-17.7,0-23.1,2-23.8,11.1l0.1,46.6
		C444.6,121.1,443.6,122,442.5,122z M669.1,40.5V120c0,1.2-1,2.1-2.1,2.1h-19.5c-2.2,0-2.1-2.8-2.1-2.8c0-1.2-1-1.9-2-1.3
		c0,0-6.8,5-16.5,5c-25.2,0-42.2-18.2-42.2-43.3c0-23.3,18.9-41.9,41.6-41.9c9.6,0,17.2,4.5,17.2,4.5c1.1,0.6,2.2-0.1,2.2-1.2
		c0,0-0.1-2.8,2.1-2.8H667v0C668.2,38.4,669.1,39.3,669.1,40.5z M645.4,80.1c0-10.2-8.2-18.4-18.3-18.4c-10.1,0-18.3,8.2-18.3,18.4
		c0,10.2,8.2,18.4,18.3,18.4C637.2,98.5,645.4,90.3,645.4,80.1z"/>
</g>
</svg>
